<svg width="32" height="27" viewBox="0 0 32 27" fill="none" xmlns="http://www.w3.org/2000/svg">
<path d="M25.7427 15.64C25.6441 15.5634 25.526 15.5159 25.4019 15.5031C25.2777 15.4902 25.1524 15.5125 25.0403 15.5674C24.9281 15.6223 24.8337 15.7076 24.7676 15.8135C24.7016 15.9195 24.6666 16.0418 24.6667 16.1667V19.5H21.8607C21.268 19.5011 20.6826 19.37 20.147 19.1163C19.6115 18.8626 19.1392 18.4926 18.7647 18.0333L15.9173 14.5533L14.1947 16.6587L16.7013 19.7253C17.3257 20.4903 18.1128 21.1063 19.0053 21.5287C19.8978 21.951 20.8733 22.169 21.8607 22.1667H24.6667V25.5C24.6666 25.6249 24.7016 25.7472 24.7676 25.8532C24.8337 25.9591 24.9281 26.0444 25.0403 26.0993C25.1524 26.1541 25.2777 26.1764 25.4019 26.1636C25.526 26.1508 25.6441 26.1033 25.7427 26.0267L31.7427 21.36C31.823 21.2977 31.888 21.2178 31.9327 21.1266C31.9774 21.0353 32.0006 20.935 32.0006 20.8333C32.0006 20.7317 31.9774 20.6314 31.9327 20.5401C31.888 20.4488 31.823 20.369 31.7427 20.3067L25.7427 15.64Z" fill="black"/>
<path d="M1.33333 7.50006H4.806C5.39864 7.49895 5.98406 7.63003 6.51964 7.88375C7.05521 8.13747 7.52746 8.50744 7.902 8.96673L10.7493 12.4467L12.472 10.3414L9.96533 7.27472C9.34098 6.50979 8.55389 5.89373 7.66137 5.4714C6.76886 5.04908 5.79339 4.83111 4.806 4.83339H1.33333C0.979711 4.83339 0.640573 4.97387 0.390524 5.22392C0.140476 5.47396 0 5.8131 0 6.16673C0 6.52035 0.140476 6.85949 0.390524 7.10953C0.640573 7.35958 0.979711 7.50006 1.33333 7.50006Z" fill="black"/>
<path d="M21.8607 7.50002H24.6667V10.8333C24.6666 10.9582 24.7016 11.0806 24.7676 11.1865C24.8336 11.2924 24.9281 11.3777 25.0403 11.4326C25.1524 11.4875 25.2777 11.5098 25.4019 11.4969C25.526 11.4841 25.6441 11.4367 25.7427 11.36L31.7427 6.69335C31.823 6.63103 31.8879 6.55118 31.9327 6.4599C31.9774 6.36862 32.0006 6.26832 32.0006 6.16668C32.0006 6.06504 31.9774 5.96475 31.9327 5.87346C31.8879 5.78218 31.823 5.70233 31.7427 5.64002L25.7427 0.973349C25.6441 0.896694 25.526 0.849249 25.4019 0.836417C25.2777 0.823585 25.1524 0.845881 25.0403 0.900767C24.9281 0.955652 24.8336 1.04092 24.7676 1.14687C24.7016 1.25281 24.6666 1.37517 24.6667 1.50002V4.83335H21.8607C20.873 4.83157 19.8974 5.05009 19.0049 5.47299C18.1124 5.8959 17.3254 6.51254 16.7013 7.27802L7.902 18.0333C7.52737 18.4925 7.0551 18.8624 6.51954 19.1161C5.98399 19.3698 5.39861 19.501 4.806 19.5H1.33333C0.979711 19.5 0.640573 19.6405 0.390524 19.8905C0.140476 20.1406 0 20.4797 0 20.8333C0 21.187 0.140476 21.5261 0.390524 21.7762C0.640573 22.0262 0.979711 22.1667 1.33333 22.1667H4.806C5.79364 22.1685 6.76925 21.9499 7.66176 21.527C8.55428 21.1041 9.34124 20.4875 9.96533 19.722L18.7647 8.96668C19.1393 8.50751 19.6116 8.13761 20.1471 7.8839C20.6827 7.63019 21.2681 7.49905 21.8607 7.50002Z" fill="black"/>
</svg>
