<svg width="30" height="31" viewBox="0 0 30 31" fill="none" xmlns="http://www.w3.org/2000/svg">
<path d="M29 0.5H20C19.8022 0.500042 19.609 0.558714 19.4445 0.668598C19.2801 0.778483 19.152 0.934646 19.0763 1.11735C19.0007 1.30005 18.9808 1.50108 19.0194 1.69503C19.058 1.88898 19.1532 2.06715 19.293 2.207L23.086 6L5.5 23.586L1.707 19.793C1.56715 19.6532 1.38898 19.558 1.19503 19.5194C1.00108 19.4808 0.800045 19.5007 0.617345 19.5763C0.434646 19.652 0.278483 19.7801 0.168598 19.9445C0.0587141 20.109 4.22243e-05 20.3022 0 20.5V29.5C0 29.7652 0.105357 30.0196 0.292893 30.2071C0.48043 30.3946 0.734784 30.5 1 30.5H10C10.1978 30.5 10.391 30.4413 10.5555 30.3314C10.7199 30.2215 10.848 30.0654 10.9237 29.8827C10.9993 29.7 11.0192 29.4989 10.9806 29.305C10.942 29.111 10.8468 28.9329 10.707 28.793L6.914 25L24.5 7.414L28.293 11.207C28.4805 11.3945 28.7348 11.4999 29 11.5C29.1315 11.5004 29.2617 11.4746 29.383 11.424C29.5657 11.3483 29.7218 11.22 29.8316 11.0556C29.9415 10.8911 30 10.6978 30 10.5V1.5C30 1.23478 29.8946 0.98043 29.7071 0.792893C29.5196 0.605357 29.2652 0.5 29 0.5Z" fill="#212121"/>
</svg>
