<svg width="16" height="16" viewBox="0 0 16 16" fill="none" xmlns="http://www.w3.org/2000/svg">
<path d="M8.03749 12.7254C8.36629 12.7254 8.63284 12.4588 8.63284 12.13C8.63284 11.8012 8.36629 11.5347 8.03749 11.5347C7.70869 11.5347 7.44214 11.8012 7.44214 12.13C7.44214 12.4588 7.70869 12.7254 8.03749 12.7254Z" fill="#FC1944"/>
<path d="M8.03733 0C3.64663 0 0.00012207 3.64651 0.00012207 8.03721C0.00012207 12.4279 3.57221 16 7.96291 16C12.3536 16 16.0001 12.4279 16.0001 7.96279C16.0001 3.49767 12.428 0 8.03733 0ZM8.03733 1.1907C11.8327 1.1907 14.8838 4.24186 14.8838 8.03721C14.8838 11.8326 11.8327 14.8837 8.03733 14.8837C4.24198 14.8837 1.19082 11.8326 1.19082 8.03721C1.19082 4.24186 4.24198 1.1907 8.03733 1.1907Z" fill="#FC1944"/>
<path d="M5.80483 7.1442C6.10251 7.1442 6.40018 6.92095 6.40018 6.54885C6.40018 5.95351 6.69786 5.35816 7.29321 5.06048C7.6653 4.83723 8.11181 4.76281 8.55832 4.91165C8.93042 5.06048 9.30251 5.35816 9.52576 5.73025C9.97228 6.54885 9.6746 7.59072 8.856 8.03723C8.03739 8.48374 7.51646 9.30234 7.51646 10.1954V10.2698C7.51646 10.4186 7.59088 10.5675 7.6653 10.6419C7.73972 10.7163 7.88856 10.7907 8.03739 10.7907C8.03739 10.7907 8.03739 10.7907 8.11181 10.7907C8.40949 10.7907 8.63274 10.493 8.63274 10.1954C8.63274 9.67444 8.93042 9.22792 9.45135 9.00467C10.3444 8.48374 10.8653 7.59072 10.8653 6.54885C10.8653 5.80467 10.5676 5.1349 10.0467 4.53955C9.45135 4.01862 8.78158 3.72095 8.03739 3.72095C6.4746 3.72095 5.20949 4.98606 5.2839 6.54885C5.20949 6.84653 5.50716 7.1442 5.80483 7.1442Z" fill="#FC1944"/>
</svg>
